<svg id="visual" viewBox="0 0 900 600" width="900" height="600" xmlns="http://www.w3.org/2000/svg" xmlns:xlink="http://www.w3.org/1999/xlink" version="1.1"><g stroke-width="1" stroke-linejoin="bevel"><path d="M425 289L513 260L427 186Z" fill="#5fa2cb" stroke="#5fa2cb"></path><path d="M513 260L498 165L427 186Z" fill="#0079fd" stroke="#0079fd"></path><path d="M615 100L498 130L498 165Z" fill="#0079fd" stroke="#0079fd"></path><path d="M498 165L498 130L427 186Z" fill="#1491e8" stroke="#1491e8"></path><path d="M337 129L334 201L427 186Z" fill="#1491e8" stroke="#1491e8"></path><path d="M427 186L334 201L425 289Z" fill="#9dabb1" stroke="#9dabb1"></path><path d="M623 304L606 232L513 260Z" fill="#6600ff" stroke="#6600ff"></path><path d="M513 260L606 232L498 165Z" fill="#1491e8" stroke="#1491e8"></path><path d="M498 130L408 89L427 186Z" fill="#0069ff" stroke="#0069ff"></path><path d="M373 410L489 393L425 289Z" fill="#0e57ff" stroke="#0e57ff"></path><path d="M425 289L489 393L513 260Z" fill="#6600ff" stroke="#6600ff"></path><path d="M408 89L337 129L427 186Z" fill="#0086f4" stroke="#0086f4"></path><path d="M606 369L623 304L513 260Z" fill="#9dabb1" stroke="#9dabb1"></path><path d="M262 288L373 410L425 289Z" fill="#0e57ff" stroke="#0e57ff"></path><path d="M489 393L606 369L513 260Z" fill="#433dff" stroke="#433dff"></path><path d="M189 176L262 288L334 201Z" fill="#3d9ada" stroke="#3d9ada"></path><path d="M334 201L262 288L425 289Z" fill="#6600ff" stroke="#6600ff"></path><path d="M718 216L615 100L606 232Z" fill="#0069ff" stroke="#0069ff"></path><path d="M606 232L615 100L498 165Z" fill="#0069ff" stroke="#0069ff"></path><path d="M531 0L386 0L408 89Z" fill="#0086f4" stroke="#0086f4"></path><path d="M262 288L321 423L373 410Z" fill="#1491e8" stroke="#1491e8"></path><path d="M373 410L373 468L489 393Z" fill="#5fa2cb" stroke="#5fa2cb"></path><path d="M321 423L373 468L373 410Z" fill="#9dabb1" stroke="#9dabb1"></path><path d="M489 393L602 517L606 369Z" fill="#3d9ada" stroke="#3d9ada"></path><path d="M339 0L238 123L337 129Z" fill="#0069ff" stroke="#0069ff"></path><path d="M337 129L238 123L334 201Z" fill="#0e57ff" stroke="#0e57ff"></path><path d="M531 0L408 89L498 130Z" fill="#6600ff" stroke="#6600ff"></path><path d="M408 89L339 0L337 129Z" fill="#1491e8" stroke="#1491e8"></path><path d="M615 100L531 0L498 130Z" fill="#9dabb1" stroke="#9dabb1"></path><path d="M606 369L700 295L623 304Z" fill="#0e57ff" stroke="#0e57ff"></path><path d="M623 304L700 295L606 232Z" fill="#1491e8" stroke="#1491e8"></path><path d="M700 295L718 216L606 232Z" fill="#9dabb1" stroke="#9dabb1"></path><path d="M615 100L594 0L531 0Z" fill="#9dabb1" stroke="#9dabb1"></path><path d="M386 0L339 0L408 89Z" fill="#0e57ff" stroke="#0e57ff"></path><path d="M691 0L594 0L615 100Z" fill="#0079fd" stroke="#0079fd"></path><path d="M101 204L189 176L92 93Z" fill="#433dff" stroke="#433dff"></path><path d="M238 123L189 176L334 201Z" fill="#0e57ff" stroke="#0e57ff"></path><path d="M262 288L235 434L321 423Z" fill="#0086f4" stroke="#0086f4"></path><path d="M373 468L491 512L489 393Z" fill="#7fa7bd" stroke="#7fa7bd"></path><path d="M606 369L701 430L700 295Z" fill="#9dabb1" stroke="#9dabb1"></path><path d="M718 216L712 111L615 100Z" fill="#0069ff" stroke="#0069ff"></path><path d="M189 176L174 284L262 288Z" fill="#9dabb1" stroke="#9dabb1"></path><path d="M321 423L337 510L373 468Z" fill="#1491e8" stroke="#1491e8"></path><path d="M399 600L461 600L491 512Z" fill="#0e57ff" stroke="#0e57ff"></path><path d="M174 284L235 434L262 288Z" fill="#1491e8" stroke="#1491e8"></path><path d="M232 511L337 510L321 423Z" fill="#0086f4" stroke="#0086f4"></path><path d="M602 517L701 430L606 369Z" fill="#433dff" stroke="#433dff"></path><path d="M700 295L797 280L718 216Z" fill="#433dff" stroke="#433dff"></path><path d="M491 512L602 517L489 393Z" fill="#7fa7bd" stroke="#7fa7bd"></path><path d="M666 525L602 517L606 600Z" fill="#433dff" stroke="#433dff"></path><path d="M712 111L691 0L615 100Z" fill="#3d9ada" stroke="#3d9ada"></path><path d="M761 416L797 280L700 295Z" fill="#9dabb1" stroke="#9dabb1"></path><path d="M718 216L799 169L712 111Z" fill="#1491e8" stroke="#1491e8"></path><path d="M712 111L797 61L691 0Z" fill="#6600ff" stroke="#6600ff"></path><path d="M101 204L115 276L174 284Z" fill="#6600ff" stroke="#6600ff"></path><path d="M174 284L79 396L235 434Z" fill="#3d9ada" stroke="#3d9ada"></path><path d="M797 280L799 169L718 216Z" fill="#0079fd" stroke="#0079fd"></path><path d="M774 478L761 416L701 430Z" fill="#7fa7bd" stroke="#7fa7bd"></path><path d="M701 430L761 416L700 295Z" fill="#0079fd" stroke="#0079fd"></path><path d="M235 434L232 511L321 423Z" fill="#9dabb1" stroke="#9dabb1"></path><path d="M606 600L602 517L491 512Z" fill="#433dff" stroke="#433dff"></path><path d="M74 501L232 511L235 434Z" fill="#3d9ada" stroke="#3d9ada"></path><path d="M491 512L373 468L399 600Z" fill="#433dff" stroke="#433dff"></path><path d="M602 517L666 525L701 430Z" fill="#0069ff" stroke="#0069ff"></path><path d="M92 93L189 176L238 123Z" fill="#7fa7bd" stroke="#7fa7bd"></path><path d="M189 176L101 204L174 284Z" fill="#0e57ff" stroke="#0e57ff"></path><path d="M399 600L373 468L337 510Z" fill="#0e57ff" stroke="#0e57ff"></path><path d="M339 0L184 0L238 123Z" fill="#1491e8" stroke="#1491e8"></path><path d="M260 600L399 600L337 510Z" fill="#6600ff" stroke="#6600ff"></path><path d="M799 169L797 61L712 111Z" fill="#7fa7bd" stroke="#7fa7bd"></path><path d="M461 600L606 600L491 512Z" fill="#6600ff" stroke="#6600ff"></path><path d="M666 525L774 478L701 430Z" fill="#3d9ada" stroke="#3d9ada"></path><path d="M184 0L92 93L238 123Z" fill="#7fa7bd" stroke="#7fa7bd"></path><path d="M792 600L774 478L666 525Z" fill="#7fa7bd" stroke="#7fa7bd"></path><path d="M900 311L900 232L797 280Z" fill="#5fa2cb" stroke="#5fa2cb"></path><path d="M0 264L79 396L115 276Z" fill="#6600ff" stroke="#6600ff"></path><path d="M115 276L79 396L174 284Z" fill="#6600ff" stroke="#6600ff"></path><path d="M0 264L115 276L101 204Z" fill="#6600ff" stroke="#6600ff"></path><path d="M797 61L793 0L691 0Z" fill="#5fa2cb" stroke="#5fa2cb"></path><path d="M227 600L260 600L232 511Z" fill="#7fa7bd" stroke="#7fa7bd"></path><path d="M232 511L260 600L337 510Z" fill="#1491e8" stroke="#1491e8"></path><path d="M184 0L105 0L92 93Z" fill="#5fa2cb" stroke="#5fa2cb"></path><path d="M606 600L682 600L666 525Z" fill="#0079fd" stroke="#0079fd"></path><path d="M124 600L227 600L232 511Z" fill="#0079fd" stroke="#0079fd"></path><path d="M797 280L900 232L799 169Z" fill="#0079fd" stroke="#0079fd"></path><path d="M799 169L900 131L797 61Z" fill="#5fa2cb" stroke="#5fa2cb"></path><path d="M797 61L900 0L793 0Z" fill="#433dff" stroke="#433dff"></path><path d="M900 311L797 280L900 377Z" fill="#0086f4" stroke="#0086f4"></path><path d="M900 377L797 280L761 416Z" fill="#3d9ada" stroke="#3d9ada"></path><path d="M900 377L761 416L900 478Z" fill="#5fa2cb" stroke="#5fa2cb"></path><path d="M900 232L900 131L799 169Z" fill="#6600ff" stroke="#6600ff"></path><path d="M0 173L0 264L101 204Z" fill="#0069ff" stroke="#0069ff"></path><path d="M0 173L101 204L0 135Z" fill="#0086f4" stroke="#0086f4"></path><path d="M0 135L101 204L92 93Z" fill="#0086f4" stroke="#0086f4"></path><path d="M900 478L761 416L774 478Z" fill="#0e57ff" stroke="#0e57ff"></path><path d="M0 473L74 501L79 396Z" fill="#3d9ada" stroke="#3d9ada"></path><path d="M79 396L74 501L235 434Z" fill="#0086f4" stroke="#0086f4"></path><path d="M0 0L0 135L92 93Z" fill="#433dff" stroke="#433dff"></path><path d="M0 264L0 417L79 396Z" fill="#1491e8" stroke="#1491e8"></path><path d="M74 501L124 600L232 511Z" fill="#7fa7bd" stroke="#7fa7bd"></path><path d="M0 600L124 600L74 501Z" fill="#5fa2cb" stroke="#5fa2cb"></path><path d="M682 600L792 600L666 525Z" fill="#3d9ada" stroke="#3d9ada"></path><path d="M900 131L900 0L797 61Z" fill="#3d9ada" stroke="#3d9ada"></path><path d="M792 600L900 478L774 478Z" fill="#0069ff" stroke="#0069ff"></path><path d="M0 417L0 473L79 396Z" fill="#433dff" stroke="#433dff"></path><path d="M105 0L0 0L92 93Z" fill="#7fa7bd" stroke="#7fa7bd"></path><path d="M792 600L900 600L900 478Z" fill="#1491e8" stroke="#1491e8"></path><path d="M0 473L0 600L74 501Z" fill="#0069ff" stroke="#0069ff"></path></g></svg>