<svg id="visual" viewBox="0 0 900 600" width="900" height="600" xmlns="http://www.w3.org/2000/svg" xmlns:xlink="http://www.w3.org/1999/xlink" version="1.1"><g stroke-width="1" stroke-linejoin="bevel"><path d="M465 316L405 286L381 383Z" fill="#c7147b" stroke="#c7147b"></path><path d="M381 383L511 397L465 316Z" fill="#e50173" stroke="#e50173"></path><path d="M405 286L321 276L381 383Z" fill="#17224a" stroke="#17224a"></path><path d="M381 383L472 461L511 397Z" fill="#87297d" stroke="#87297d"></path><path d="M321 276L278 381L381 383Z" fill="#17224a" stroke="#17224a"></path><path d="M381 383L436 536L472 461Z" fill="#a7217e" stroke="#a7217e"></path><path d="M582 389L568 324L511 397Z" fill="#ff0066" stroke="#ff0066"></path><path d="M511 397L568 324L465 316Z" fill="#492c6b" stroke="#492c6b"></path><path d="M530 168L394 178L405 286Z" fill="#672c76" stroke="#672c76"></path><path d="M530 168L405 286L465 316Z" fill="#87297d" stroke="#87297d"></path><path d="M405 286L394 178L321 276Z" fill="#672c76" stroke="#672c76"></path><path d="M580 503L582 389L511 397Z" fill="#17224a" stroke="#17224a"></path><path d="M309 519L436 536L381 383Z" fill="#a7217e" stroke="#a7217e"></path><path d="M472 461L580 503L511 397Z" fill="#87297d" stroke="#87297d"></path><path d="M394 178L300 176L321 276Z" fill="#ff0066" stroke="#ff0066"></path><path d="M177 293L211 390L278 381Z" fill="#17224a" stroke="#17224a"></path><path d="M568 324L530 168L465 316Z" fill="#c7147b" stroke="#c7147b"></path><path d="M394 178L332 82L300 176Z" fill="#061b36" stroke="#061b36"></path><path d="M278 381L309 519L381 383Z" fill="#2e285c" stroke="#2e285c"></path><path d="M177 293L278 381L321 276Z" fill="#e50173" stroke="#e50173"></path><path d="M278 381L214 478L309 519Z" fill="#c7147b" stroke="#c7147b"></path><path d="M568 324L621 234L530 168Z" fill="#672c76" stroke="#672c76"></path><path d="M719 308L621 234L568 324Z" fill="#001122" stroke="#001122"></path><path d="M436 536L580 503L472 461Z" fill="#001122" stroke="#001122"></path><path d="M582 389L664 418L568 324Z" fill="#17224a" stroke="#17224a"></path><path d="M181 200L177 293L321 276Z" fill="#87297d" stroke="#87297d"></path><path d="M80 498L214 478L211 390Z" fill="#e50173" stroke="#e50173"></path><path d="M211 390L214 478L278 381Z" fill="#17224a" stroke="#17224a"></path><path d="M309 519L404 600L436 536Z" fill="#492c6b" stroke="#492c6b"></path><path d="M436 536L461 600L580 503Z" fill="#17224a" stroke="#17224a"></path><path d="M280 600L404 600L309 519Z" fill="#a7217e" stroke="#a7217e"></path><path d="M580 503L664 418L582 389Z" fill="#a7217e" stroke="#a7217e"></path><path d="M404 600L461 600L436 536Z" fill="#e50173" stroke="#e50173"></path><path d="M429 68L332 82L394 178Z" fill="#001122" stroke="#001122"></path><path d="M300 176L181 200L321 276Z" fill="#17224a" stroke="#17224a"></path><path d="M482 64L429 68L530 168Z" fill="#c7147b" stroke="#c7147b"></path><path d="M530 168L429 68L394 178Z" fill="#87297d" stroke="#87297d"></path><path d="M180 79L181 200L300 176Z" fill="#001122" stroke="#001122"></path><path d="M622 67L482 64L530 168Z" fill="#061b36" stroke="#061b36"></path><path d="M231 600L280 600L309 519Z" fill="#492c6b" stroke="#492c6b"></path><path d="M74 139L137 228L181 200Z" fill="#2e285c" stroke="#2e285c"></path><path d="M181 200L137 228L177 293Z" fill="#87297d" stroke="#87297d"></path><path d="M177 293L66 367L211 390Z" fill="#2e285c" stroke="#2e285c"></path><path d="M664 418L719 308L568 324Z" fill="#061b36" stroke="#061b36"></path><path d="M621 234L622 67L530 168Z" fill="#e50173" stroke="#e50173"></path><path d="M580 503L731 528L664 418Z" fill="#672c76" stroke="#672c76"></path><path d="M664 418L776 376L719 308Z" fill="#2e285c" stroke="#2e285c"></path><path d="M461 600L593 600L580 503Z" fill="#87297d" stroke="#87297d"></path><path d="M137 228L101 293L177 293Z" fill="#e50173" stroke="#e50173"></path><path d="M214 478L231 600L309 519Z" fill="#492c6b" stroke="#492c6b"></path><path d="M103 600L231 600L214 478Z" fill="#672c76" stroke="#672c76"></path><path d="M719 308L718 194L621 234Z" fill="#87297d" stroke="#87297d"></path><path d="M519 0L429 68L482 64Z" fill="#672c76" stroke="#672c76"></path><path d="M519 0L382 0L429 68Z" fill="#87297d" stroke="#87297d"></path><path d="M429 68L382 0L332 82Z" fill="#2e285c" stroke="#2e285c"></path><path d="M332 82L180 79L300 176Z" fill="#a7217e" stroke="#a7217e"></path><path d="M718 194L622 67L621 234Z" fill="#e50173" stroke="#e50173"></path><path d="M101 293L66 367L177 293Z" fill="#492c6b" stroke="#492c6b"></path><path d="M261 0L180 79L332 82Z" fill="#672c76" stroke="#672c76"></path><path d="M137 228L0 178L101 293Z" fill="#061b36" stroke="#061b36"></path><path d="M101 293L0 330L66 367Z" fill="#e50173" stroke="#e50173"></path><path d="M622 67L519 0L482 64Z" fill="#001122" stroke="#001122"></path><path d="M779 508L776 376L664 418Z" fill="#2e285c" stroke="#2e285c"></path><path d="M719 308L795 279L718 194Z" fill="#ff0066" stroke="#ff0066"></path><path d="M593 600L731 528L580 503Z" fill="#e50173" stroke="#e50173"></path><path d="M66 367L80 498L211 390Z" fill="#061b36" stroke="#061b36"></path><path d="M382 0L261 0L332 82Z" fill="#672c76" stroke="#672c76"></path><path d="M776 376L795 279L719 308Z" fill="#17224a" stroke="#17224a"></path><path d="M673 0L605 0L622 67Z" fill="#a7217e" stroke="#a7217e"></path><path d="M723 66L622 67L718 194Z" fill="#87297d" stroke="#87297d"></path><path d="M622 67L605 0L519 0Z" fill="#17224a" stroke="#17224a"></path><path d="M120 0L74 139L180 79Z" fill="#c7147b" stroke="#c7147b"></path><path d="M180 79L74 139L181 200Z" fill="#c7147b" stroke="#c7147b"></path><path d="M737 600L779 508L731 528Z" fill="#c7147b" stroke="#c7147b"></path><path d="M731 528L779 508L664 418Z" fill="#2e285c" stroke="#2e285c"></path><path d="M776 376L900 315L795 279Z" fill="#672c76" stroke="#672c76"></path><path d="M80 498L103 600L214 478Z" fill="#17224a" stroke="#17224a"></path><path d="M795 279L804 209L718 194Z" fill="#c7147b" stroke="#c7147b"></path><path d="M900 220L804 209L795 279Z" fill="#672c76" stroke="#672c76"></path><path d="M764 62L723 66L718 194Z" fill="#001122" stroke="#001122"></path><path d="M593 600L737 600L731 528Z" fill="#2e285c" stroke="#2e285c"></path><path d="M0 178L0 330L101 293Z" fill="#001122" stroke="#001122"></path><path d="M66 367L0 438L80 498Z" fill="#a7217e" stroke="#a7217e"></path><path d="M80 498L0 600L103 600Z" fill="#492c6b" stroke="#492c6b"></path><path d="M261 0L163 0L180 79Z" fill="#c7147b" stroke="#c7147b"></path><path d="M723 66L673 0L622 67Z" fill="#492c6b" stroke="#492c6b"></path><path d="M0 330L0 438L66 367Z" fill="#c7147b" stroke="#c7147b"></path><path d="M0 438L0 494L80 498Z" fill="#17224a" stroke="#17224a"></path><path d="M804 209L764 62L718 194Z" fill="#e50173" stroke="#e50173"></path><path d="M723 66L764 62L673 0Z" fill="#17224a" stroke="#17224a"></path><path d="M74 139L0 178L137 228Z" fill="#a7217e" stroke="#a7217e"></path><path d="M0 118L0 178L74 139Z" fill="#492c6b" stroke="#492c6b"></path><path d="M163 0L120 0L180 79Z" fill="#c7147b" stroke="#c7147b"></path><path d="M0 0L0 118L74 139Z" fill="#87297d" stroke="#87297d"></path><path d="M737 600L815 600L779 508Z" fill="#ff0066" stroke="#ff0066"></path><path d="M900 407L900 315L776 376Z" fill="#17224a" stroke="#17224a"></path><path d="M900 407L776 376L779 508Z" fill="#001122" stroke="#001122"></path><path d="M804 209L900 81L764 62Z" fill="#672c76" stroke="#672c76"></path><path d="M900 534L900 407L779 508Z" fill="#e50173" stroke="#e50173"></path><path d="M0 494L0 600L80 498Z" fill="#17224a" stroke="#17224a"></path><path d="M900 315L900 220L795 279Z" fill="#17224a" stroke="#17224a"></path><path d="M815 600L900 534L779 508Z" fill="#492c6b" stroke="#492c6b"></path><path d="M900 81L817 0L764 62Z" fill="#001122" stroke="#001122"></path><path d="M764 62L817 0L673 0Z" fill="#87297d" stroke="#87297d"></path><path d="M120 0L0 0L74 139Z" fill="#2e285c" stroke="#2e285c"></path><path d="M900 220L900 81L804 209Z" fill="#061b36" stroke="#061b36"></path><path d="M815 600L900 600L900 534Z" fill="#2e285c" stroke="#2e285c"></path><path d="M900 81L900 0L817 0Z" fill="#ff0066" stroke="#ff0066"></path></g></svg>