<svg id="visual" viewBox="0 0 900 600" width="900" height="600" xmlns="http://www.w3.org/2000/svg" xmlns:xlink="http://www.w3.org/1999/xlink" version="1.1"><g stroke-width="1" stroke-linejoin="bevel"><path d="M460 321L426 383L471 372Z" fill="#95acb7" stroke="#95acb7"></path><path d="M460 321L416 271L426 383Z" fill="#55adf0" stroke="#55adf0"></path><path d="M268 313L304 429L426 383Z" fill="#4facf7" stroke="#4facf7"></path><path d="M494 503L582 396L471 372Z" fill="#4facf7" stroke="#4facf7"></path><path d="M471 372L582 396L460 321Z" fill="#7caecb" stroke="#7caecb"></path><path d="M460 321L562 233L416 271Z" fill="#6caed9" stroke="#6caed9"></path><path d="M416 271L466 162L372 229Z" fill="#6caed9" stroke="#6caed9"></path><path d="M426 383L494 503L471 372Z" fill="#95acb7" stroke="#95acb7"></path><path d="M268 313L426 383L416 271Z" fill="#9dabb1" stroke="#9dabb1"></path><path d="M430 527L494 503L426 383Z" fill="#4facf7" stroke="#4facf7"></path><path d="M605 266L562 233L460 321Z" fill="#5cade8" stroke="#5cade8"></path><path d="M304 429L430 527L426 383Z" fill="#7caecb" stroke="#7caecb"></path><path d="M372 229L268 313L416 271Z" fill="#5cade8" stroke="#5cade8"></path><path d="M582 396L605 266L460 321Z" fill="#55adf0" stroke="#55adf0"></path><path d="M562 233L466 162L416 271Z" fill="#8dadbd" stroke="#8dadbd"></path><path d="M494 503L574 502L582 396Z" fill="#4facf7" stroke="#4facf7"></path><path d="M582 396L703 291L605 266Z" fill="#8dadbd" stroke="#8dadbd"></path><path d="M507 600L574 502L494 503Z" fill="#95acb7" stroke="#95acb7"></path><path d="M235 430L313 523L304 429Z" fill="#5cade8" stroke="#5cade8"></path><path d="M304 429L313 523L430 527Z" fill="#55adf0" stroke="#55adf0"></path><path d="M268 313L235 430L304 429Z" fill="#5cade8" stroke="#5cade8"></path><path d="M307 62L288 190L372 229Z" fill="#55adf0" stroke="#55adf0"></path><path d="M372 229L288 190L268 313Z" fill="#55adf0" stroke="#55adf0"></path><path d="M268 313L186 320L235 430Z" fill="#55adf0" stroke="#55adf0"></path><path d="M366 600L507 600L430 527Z" fill="#8dadbd" stroke="#8dadbd"></path><path d="M430 527L507 600L494 503Z" fill="#84adc4" stroke="#84adc4"></path><path d="M213 186L186 320L268 313Z" fill="#55adf0" stroke="#55adf0"></path><path d="M321 600L366 600L313 523Z" fill="#84adc4" stroke="#84adc4"></path><path d="M313 523L366 600L430 527Z" fill="#7caecb" stroke="#7caecb"></path><path d="M664 532L582 396L574 502Z" fill="#5cade8" stroke="#5cade8"></path><path d="M664 532L700 391L582 396Z" fill="#84adc4" stroke="#84adc4"></path><path d="M700 391L703 291L582 396Z" fill="#7caecb" stroke="#7caecb"></path><path d="M678 188L587 119L562 233Z" fill="#84adc4" stroke="#84adc4"></path><path d="M562 233L587 119L466 162Z" fill="#74aed2" stroke="#74aed2"></path><path d="M678 188L562 233L605 266Z" fill="#9dabb1" stroke="#9dabb1"></path><path d="M307 62L213 186L288 190Z" fill="#84adc4" stroke="#84adc4"></path><path d="M160 600L321 600L313 523Z" fill="#9dabb1" stroke="#9dabb1"></path><path d="M507 600L570 600L574 502Z" fill="#74aed2" stroke="#74aed2"></path><path d="M288 190L213 186L268 313Z" fill="#4facf7" stroke="#4facf7"></path><path d="M437 64L372 229L466 162Z" fill="#4facf7" stroke="#4facf7"></path><path d="M570 600L664 532L574 502Z" fill="#6caed9" stroke="#6caed9"></path><path d="M703 291L678 188L605 266Z" fill="#74aed2" stroke="#74aed2"></path><path d="M533 71L437 64L466 162Z" fill="#8dadbd" stroke="#8dadbd"></path><path d="M587 119L533 71L466 162Z" fill="#5cade8" stroke="#5cade8"></path><path d="M624 0L533 71L587 119Z" fill="#4facf7" stroke="#4facf7"></path><path d="M186 320L138 374L235 430Z" fill="#5cade8" stroke="#5cade8"></path><path d="M235 430L169 521L313 523Z" fill="#8dadbd" stroke="#8dadbd"></path><path d="M134 268L138 374L186 320Z" fill="#55adf0" stroke="#55adf0"></path><path d="M796 207L668 128L678 188Z" fill="#4facf7" stroke="#4facf7"></path><path d="M678 188L668 128L587 119Z" fill="#5cade8" stroke="#5cade8"></path><path d="M213 186L134 268L186 320Z" fill="#9dabb1" stroke="#9dabb1"></path><path d="M437 64L307 62L372 229Z" fill="#6caed9" stroke="#6caed9"></path><path d="M213 186L124 199L134 268Z" fill="#84adc4" stroke="#84adc4"></path><path d="M138 374L169 521L235 430Z" fill="#8dadbd" stroke="#8dadbd"></path><path d="M700 391L769 311L703 291Z" fill="#84adc4" stroke="#84adc4"></path><path d="M703 291L796 207L678 188Z" fill="#95acb7" stroke="#95acb7"></path><path d="M785 421L769 311L700 391Z" fill="#84adc4" stroke="#84adc4"></path><path d="M664 532L785 421L700 391Z" fill="#4facf7" stroke="#4facf7"></path><path d="M184 78L124 199L213 186Z" fill="#7caecb" stroke="#7caecb"></path><path d="M78 600L110 529L0 600Z" fill="#4facf7" stroke="#4facf7"></path><path d="M533 71L503 0L437 64Z" fill="#84adc4" stroke="#84adc4"></path><path d="M437 64L375 0L307 62Z" fill="#4facf7" stroke="#4facf7"></path><path d="M624 0L503 0L533 71Z" fill="#4facf7" stroke="#4facf7"></path><path d="M503 0L375 0L437 64Z" fill="#7caecb" stroke="#7caecb"></path><path d="M307 62L184 78L213 186Z" fill="#74aed2" stroke="#74aed2"></path><path d="M570 600L701 600L664 532Z" fill="#55adf0" stroke="#55adf0"></path><path d="M664 532L802 501L785 421Z" fill="#9dabb1" stroke="#9dabb1"></path><path d="M375 0L315 0L307 62Z" fill="#55adf0" stroke="#55adf0"></path><path d="M169 521L160 600L313 523Z" fill="#4facf7" stroke="#4facf7"></path><path d="M110 529L160 600L169 521Z" fill="#5cade8" stroke="#5cade8"></path><path d="M182 0L184 78L307 62Z" fill="#8dadbd" stroke="#8dadbd"></path><path d="M110 529L138 374L0 465Z" fill="#64aee1" stroke="#64aee1"></path><path d="M138 374L110 529L169 521Z" fill="#84adc4" stroke="#84adc4"></path><path d="M769 311L796 207L703 291Z" fill="#7caecb" stroke="#7caecb"></path><path d="M668 128L624 0L587 119Z" fill="#55adf0" stroke="#55adf0"></path><path d="M900 268L796 207L769 311Z" fill="#95acb7" stroke="#95acb7"></path><path d="M701 600L802 501L664 532Z" fill="#9dabb1" stroke="#9dabb1"></path><path d="M785 421L900 397L769 311Z" fill="#8dadbd" stroke="#8dadbd"></path><path d="M681 0L624 0L668 128Z" fill="#64aee1" stroke="#64aee1"></path><path d="M775 61L681 0L668 128Z" fill="#7caecb" stroke="#7caecb"></path><path d="M182 0L112 76L184 78Z" fill="#5cade8" stroke="#5cade8"></path><path d="M184 78L112 76L124 199Z" fill="#7caecb" stroke="#7caecb"></path><path d="M0 417L138 374L0 272Z" fill="#95acb7" stroke="#95acb7"></path><path d="M315 0L182 0L307 62Z" fill="#4facf7" stroke="#4facf7"></path><path d="M138 374L134 268L0 272Z" fill="#64aee1" stroke="#64aee1"></path><path d="M110 529L78 600L160 600Z" fill="#74aed2" stroke="#74aed2"></path><path d="M796 207L775 61L668 128Z" fill="#64aee1" stroke="#64aee1"></path><path d="M0 272L134 268L0 234Z" fill="#74aed2" stroke="#74aed2"></path><path d="M0 234L134 268L124 199Z" fill="#7caecb" stroke="#7caecb"></path><path d="M0 417L0 465L138 374Z" fill="#7caecb" stroke="#7caecb"></path><path d="M0 72L0 234L124 199Z" fill="#7caecb" stroke="#7caecb"></path><path d="M802 501L900 397L785 421Z" fill="#6caed9" stroke="#6caed9"></path><path d="M796 207L900 126L775 61Z" fill="#7caecb" stroke="#7caecb"></path><path d="M900 397L900 268L769 311Z" fill="#6caed9" stroke="#6caed9"></path><path d="M701 600L839 600L802 501Z" fill="#74aed2" stroke="#74aed2"></path><path d="M802 501L900 528L900 397Z" fill="#7caecb" stroke="#7caecb"></path><path d="M900 268L900 208L796 207Z" fill="#84adc4" stroke="#84adc4"></path><path d="M839 600L900 528L802 501Z" fill="#84adc4" stroke="#84adc4"></path><path d="M182 0L98 0L112 76Z" fill="#7caecb" stroke="#7caecb"></path><path d="M112 76L0 72L124 199Z" fill="#6caed9" stroke="#6caed9"></path><path d="M0 465L0 600L110 529Z" fill="#7caecb" stroke="#7caecb"></path><path d="M900 208L900 126L796 207Z" fill="#84adc4" stroke="#84adc4"></path><path d="M775 61L816 0L681 0Z" fill="#9dabb1" stroke="#9dabb1"></path><path d="M900 126L816 0L775 61Z" fill="#9dabb1" stroke="#9dabb1"></path><path d="M839 600L900 600L900 528Z" fill="#84adc4" stroke="#84adc4"></path><path d="M98 0L0 72L112 76Z" fill="#4facf7" stroke="#4facf7"></path><path d="M98 0L0 0L0 72Z" fill="#95acb7" stroke="#95acb7"></path><path d="M900 126L900 0L816 0Z" fill="#7caecb" stroke="#7caecb"></path></g></svg>