<svg id="visual" viewBox="0 0 900 600" width="900" height="600" xmlns="http://www.w3.org/2000/svg" xmlns:xlink="http://www.w3.org/1999/xlink" version="1.1"><g stroke-width="1" stroke-linejoin="bevel"><path d="M476 234L504 124L417 206Z" fill="#8a83a3" stroke="#8a83a3"></path><path d="M476 234L574 222L504 124Z" fill="#8f7799" stroke="#8f7799"></path><path d="M504 124L383 86L417 206Z" fill="#92a3af" stroke="#92a3af"></path><path d="M574 222L577 109L504 124Z" fill="#888faa" stroke="#888faa"></path><path d="M504 124L535 0L383 86Z" fill="#8a4432" stroke="#8a4432"></path><path d="M383 86L310 181L417 206Z" fill="#888faa" stroke="#888faa"></path><path d="M462 385L531 323L476 234Z" fill="#888faa" stroke="#888faa"></path><path d="M377 329L476 234L417 206Z" fill="#888faa" stroke="#888faa"></path><path d="M476 234L531 323L574 222Z" fill="#92a3af" stroke="#92a3af"></path><path d="M383 86L310 107L310 181Z" fill="#8a99ad" stroke="#8a99ad"></path><path d="M310 181L377 329L417 206Z" fill="#9dabb1" stroke="#9dabb1"></path><path d="M577 109L535 0L504 124Z" fill="#985262" stroke="#985262"></path><path d="M383 86L365 0L310 107Z" fill="#8a83a3" stroke="#8a83a3"></path><path d="M535 0L365 0L383 86Z" fill="#888faa" stroke="#888faa"></path><path d="M531 323L634 293L574 222Z" fill="#8a4432" stroke="#8a4432"></path><path d="M574 222L688 168L577 109Z" fill="#946a8a" stroke="#946a8a"></path><path d="M377 329L462 385L476 234Z" fill="#8a4432" stroke="#8a4432"></path><path d="M531 323L582 365L634 293Z" fill="#8a99ad" stroke="#8a99ad"></path><path d="M377 329L429 384L462 385Z" fill="#944a4a" stroke="#944a4a"></path><path d="M634 293L688 168L574 222Z" fill="#888faa" stroke="#888faa"></path><path d="M577 109L630 0L535 0Z" fill="#985262" stroke="#985262"></path><path d="M462 385L582 365L531 323Z" fill="#8a83a3" stroke="#8a83a3"></path><path d="M195 229L267 287L310 181Z" fill="#92a3af" stroke="#92a3af"></path><path d="M310 181L267 287L377 329Z" fill="#8a4432" stroke="#8a4432"></path><path d="M377 329L333 403L429 384Z" fill="#888faa" stroke="#888faa"></path><path d="M699 83L630 0L577 109Z" fill="#985262" stroke="#985262"></path><path d="M688 168L699 83L577 109Z" fill="#8a4432" stroke="#8a4432"></path><path d="M277 0L221 138L310 107Z" fill="#92a3af" stroke="#92a3af"></path><path d="M310 107L221 138L310 181Z" fill="#888faa" stroke="#888faa"></path><path d="M365 0L277 0L310 107Z" fill="#985e78" stroke="#985e78"></path><path d="M267 287L333 403L377 329Z" fill="#888faa" stroke="#888faa"></path><path d="M429 384L384 461L462 385Z" fill="#985e78" stroke="#985e78"></path><path d="M221 138L195 229L310 181Z" fill="#985262" stroke="#985262"></path><path d="M267 287L207 402L333 403Z" fill="#946a8a" stroke="#946a8a"></path><path d="M699 83L698 0L630 0Z" fill="#944a4a" stroke="#944a4a"></path><path d="M681 382L739 272L634 293Z" fill="#985e78" stroke="#985e78"></path><path d="M634 293L739 272L688 168Z" fill="#888faa" stroke="#888faa"></path><path d="M688 168L797 72L699 83Z" fill="#8a4432" stroke="#8a4432"></path><path d="M699 83L797 72L698 0Z" fill="#8a99ad" stroke="#8a99ad"></path><path d="M715 466L681 382L629 524Z" fill="#9dabb1" stroke="#9dabb1"></path><path d="M582 365L681 382L634 293Z" fill="#888faa" stroke="#888faa"></path><path d="M514 525L582 365L462 385Z" fill="#985e78" stroke="#985e78"></path><path d="M333 403L384 461L429 384Z" fill="#92a3af" stroke="#92a3af"></path><path d="M277 0L205 0L221 138Z" fill="#8a99ad" stroke="#8a99ad"></path><path d="M101 233L122 298L195 229Z" fill="#985262" stroke="#985262"></path><path d="M122 298L174 303L195 229Z" fill="#92a3af" stroke="#92a3af"></path><path d="M195 229L174 303L267 287Z" fill="#8f7799" stroke="#8f7799"></path><path d="M333 403L303 461L384 461Z" fill="#8a4432" stroke="#8a4432"></path><path d="M207 402L303 461L333 403Z" fill="#985262" stroke="#985262"></path><path d="M809 227L797 72L688 168Z" fill="#8a99ad" stroke="#8a99ad"></path><path d="M837 335L809 227L739 272Z" fill="#946a8a" stroke="#946a8a"></path><path d="M739 272L809 227L688 168Z" fill="#944a4a" stroke="#944a4a"></path><path d="M174 303L207 402L267 287Z" fill="#92a3af" stroke="#92a3af"></path><path d="M496 600L514 525L429 600Z" fill="#8f7799" stroke="#8f7799"></path><path d="M384 461L514 525L462 385Z" fill="#92a3af" stroke="#92a3af"></path><path d="M101 233L195 229L221 138Z" fill="#985e78" stroke="#985e78"></path><path d="M174 303L127 421L207 402Z" fill="#8a99ad" stroke="#8a99ad"></path><path d="M85 109L101 233L221 138Z" fill="#8a4432" stroke="#8a4432"></path><path d="M205 0L133 0L221 138Z" fill="#946a8a" stroke="#946a8a"></path><path d="M629 524L681 382L582 365Z" fill="#8a83a3" stroke="#8a83a3"></path><path d="M681 382L795 408L739 272Z" fill="#985262" stroke="#985262"></path><path d="M514 525L629 524L582 365Z" fill="#92a3af" stroke="#92a3af"></path><path d="M133 0L85 109L221 138Z" fill="#8a99ad" stroke="#8a99ad"></path><path d="M900 95L823 0L797 72Z" fill="#8a99ad" stroke="#8a99ad"></path><path d="M797 72L823 0L698 0Z" fill="#888faa" stroke="#888faa"></path><path d="M207 402L214 477L303 461Z" fill="#8a4432" stroke="#8a4432"></path><path d="M429 600L514 525L384 461Z" fill="#985e78" stroke="#985e78"></path><path d="M127 421L214 477L207 402Z" fill="#944a4a" stroke="#944a4a"></path><path d="M715 466L795 408L681 382Z" fill="#92a3af" stroke="#92a3af"></path><path d="M795 408L837 335L739 272Z" fill="#8a4432" stroke="#8a4432"></path><path d="M809 227L900 188L797 72Z" fill="#92a3af" stroke="#92a3af"></path><path d="M0 380L127 421L122 298Z" fill="#8a99ad" stroke="#8a99ad"></path><path d="M122 298L127 421L174 303Z" fill="#985e78" stroke="#985e78"></path><path d="M429 600L384 461L316 600Z" fill="#985262" stroke="#985262"></path><path d="M514 525L639 600L629 524Z" fill="#946a8a" stroke="#946a8a"></path><path d="M316 600L384 461L303 461Z" fill="#9dabb1" stroke="#9dabb1"></path><path d="M900 293L900 188L809 227Z" fill="#946a8a" stroke="#946a8a"></path><path d="M900 188L900 95L797 72Z" fill="#8f7799" stroke="#8f7799"></path><path d="M837 335L900 293L809 227Z" fill="#9dabb1" stroke="#9dabb1"></path><path d="M900 437L900 293L837 335Z" fill="#9dabb1" stroke="#9dabb1"></path><path d="M191 600L316 600L214 477Z" fill="#888faa" stroke="#888faa"></path><path d="M214 477L316 600L303 461Z" fill="#946a8a" stroke="#946a8a"></path><path d="M496 600L639 600L514 525Z" fill="#92a3af" stroke="#92a3af"></path><path d="M629 524L735 600L715 466Z" fill="#8a83a3" stroke="#8a83a3"></path><path d="M715 466L821 486L795 408Z" fill="#9dabb1" stroke="#9dabb1"></path><path d="M795 408L900 437L837 335Z" fill="#944a4a" stroke="#944a4a"></path><path d="M900 95L900 0L823 0Z" fill="#944a4a" stroke="#944a4a"></path><path d="M0 73L0 173L85 109Z" fill="#888faa" stroke="#888faa"></path><path d="M85 109L0 173L101 233Z" fill="#8a4432" stroke="#8a4432"></path><path d="M101 233L0 262L122 298Z" fill="#8a4432" stroke="#8a4432"></path><path d="M735 600L821 486L715 466Z" fill="#985e78" stroke="#985e78"></path><path d="M0 173L0 262L101 233Z" fill="#946a8a" stroke="#946a8a"></path><path d="M0 0L0 73L85 109Z" fill="#8a4432" stroke="#8a4432"></path><path d="M133 0L0 0L85 109Z" fill="#8a83a3" stroke="#8a83a3"></path><path d="M639 600L735 600L629 524Z" fill="#92a3af" stroke="#92a3af"></path><path d="M900 525L900 437L821 486Z" fill="#985262" stroke="#985262"></path><path d="M821 486L900 437L795 408Z" fill="#944a4a" stroke="#944a4a"></path><path d="M77 510L191 600L214 477Z" fill="#946a8a" stroke="#946a8a"></path><path d="M77 510L214 477L127 421Z" fill="#9dabb1" stroke="#9dabb1"></path><path d="M0 262L0 380L122 298Z" fill="#8a99ad" stroke="#8a99ad"></path><path d="M0 380L77 510L127 421Z" fill="#8a4432" stroke="#8a4432"></path><path d="M839 600L900 525L821 486Z" fill="#8a83a3" stroke="#8a83a3"></path><path d="M735 600L839 600L821 486Z" fill="#8f7799" stroke="#8f7799"></path><path d="M0 380L0 504L77 510Z" fill="#92a3af" stroke="#92a3af"></path><path d="M77 510L75 600L191 600Z" fill="#946a8a" stroke="#946a8a"></path><path d="M0 600L75 600L77 510Z" fill="#888faa" stroke="#888faa"></path><path d="M839 600L900 600L900 525Z" fill="#9dabb1" stroke="#9dabb1"></path><path d="M0 504L0 600L77 510Z" fill="#985262" stroke="#985262"></path></g></svg>