<svg id="visual" viewBox="0 0 900 600" width="900" height="600" xmlns="http://www.w3.org/2000/svg" xmlns:xlink="http://www.w3.org/1999/xlink" version="1.1"><g stroke-width="1" stroke-linejoin="bevel"><path d="M501 274L365 330L464 366Z" fill="#9dabb1" stroke="#9dabb1"></path><path d="M501 274L386 229L365 330Z" fill="#1e2c36" stroke="#1e2c36"></path><path d="M365 330L416 383L464 366Z" fill="#9dabb1" stroke="#9dabb1"></path><path d="M501 274L466 166L386 229Z" fill="#4a5861" stroke="#4a5861"></path><path d="M389 103L304 212L386 229Z" fill="#9dabb1" stroke="#9dabb1"></path><path d="M386 229L304 212L365 330Z" fill="#8c9aa0" stroke="#8c9aa0"></path><path d="M304 212L261 327L365 330Z" fill="#9dabb1" stroke="#9dabb1"></path><path d="M365 330L265 412L416 383Z" fill="#3b4952" stroke="#3b4952"></path><path d="M619 320L588 195L501 274Z" fill="#7a8990" stroke="#7a8990"></path><path d="M501 274L588 195L466 166Z" fill="#6a7880" stroke="#6a7880"></path><path d="M629 407L619 320L464 366Z" fill="#1e2c36" stroke="#1e2c36"></path><path d="M464 366L619 320L501 274Z" fill="#4a5861" stroke="#4a5861"></path><path d="M265 412L415 494L416 383Z" fill="#8c9aa0" stroke="#8c9aa0"></path><path d="M416 383L415 494L464 366Z" fill="#9dabb1" stroke="#9dabb1"></path><path d="M261 327L265 412L365 330Z" fill="#4a5861" stroke="#4a5861"></path><path d="M522 95L389 103L466 166Z" fill="#2c3a44" stroke="#2c3a44"></path><path d="M466 166L389 103L386 229Z" fill="#2c3a44" stroke="#2c3a44"></path><path d="M415 494L533 480L464 366Z" fill="#9dabb1" stroke="#9dabb1"></path><path d="M588 195L522 95L466 166Z" fill="#7a8990" stroke="#7a8990"></path><path d="M533 480L629 407L464 366Z" fill="#4a5861" stroke="#4a5861"></path><path d="M167 318L187 375L261 327Z" fill="#3b4952" stroke="#3b4952"></path><path d="M261 327L187 375L265 412Z" fill="#00101c" stroke="#00101c"></path><path d="M265 412L261 524L415 494Z" fill="#7a8990" stroke="#7a8990"></path><path d="M728 204L619 121L588 195Z" fill="#5a6870" stroke="#5a6870"></path><path d="M588 195L619 121L522 95Z" fill="#4a5861" stroke="#4a5861"></path><path d="M728 204L588 195L619 320Z" fill="#4a5861" stroke="#4a5861"></path><path d="M336 0L296 77L389 103Z" fill="#3b4952" stroke="#3b4952"></path><path d="M389 103L296 77L304 212Z" fill="#7a8990" stroke="#7a8990"></path><path d="M167 197L167 318L261 327Z" fill="#9dabb1" stroke="#9dabb1"></path><path d="M167 197L261 327L304 212Z" fill="#3b4952" stroke="#3b4952"></path><path d="M533 480L568 530L629 407Z" fill="#111e29" stroke="#111e29"></path><path d="M532 600L568 530L533 480Z" fill="#00101c" stroke="#00101c"></path><path d="M191 491L261 524L265 412Z" fill="#00101c" stroke="#00101c"></path><path d="M415 494L532 600L533 480Z" fill="#9dabb1" stroke="#9dabb1"></path><path d="M200 98L167 197L304 212Z" fill="#8c9aa0" stroke="#8c9aa0"></path><path d="M338 600L425 600L415 494Z" fill="#3b4952" stroke="#3b4952"></path><path d="M522 95L379 0L389 103Z" fill="#3b4952" stroke="#3b4952"></path><path d="M528 0L379 0L522 95Z" fill="#7a8990" stroke="#7a8990"></path><path d="M239 0L200 98L296 77Z" fill="#111e29" stroke="#111e29"></path><path d="M296 77L200 98L304 212Z" fill="#6a7880" stroke="#6a7880"></path><path d="M89 413L191 491L187 375Z" fill="#7a8990" stroke="#7a8990"></path><path d="M187 375L191 491L265 412Z" fill="#4a5861" stroke="#4a5861"></path><path d="M733 381L619 320L629 407Z" fill="#00101c" stroke="#00101c"></path><path d="M733 381L739 264L619 320Z" fill="#8c9aa0" stroke="#8c9aa0"></path><path d="M739 264L728 204L619 320Z" fill="#6a7880" stroke="#6a7880"></path><path d="M697 531L733 381L629 407Z" fill="#9dabb1" stroke="#9dabb1"></path><path d="M217 600L338 600L261 524Z" fill="#5a6870" stroke="#5a6870"></path><path d="M261 524L338 600L415 494Z" fill="#111e29" stroke="#111e29"></path><path d="M575 0L522 95L619 121Z" fill="#2c3a44" stroke="#2c3a44"></path><path d="M575 0L528 0L522 95Z" fill="#8c9aa0" stroke="#8c9aa0"></path><path d="M379 0L336 0L389 103Z" fill="#1e2c36" stroke="#1e2c36"></path><path d="M425 600L532 600L415 494Z" fill="#111e29" stroke="#111e29"></path><path d="M568 530L697 531L629 407Z" fill="#5a6870" stroke="#5a6870"></path><path d="M728 204L667 81L619 121Z" fill="#5a6870" stroke="#5a6870"></path><path d="M667 81L575 0L619 121Z" fill="#7a8990" stroke="#7a8990"></path><path d="M532 600L584 600L568 530Z" fill="#8c9aa0" stroke="#8c9aa0"></path><path d="M125 101L101 183L167 197Z" fill="#1e2c36" stroke="#1e2c36"></path><path d="M167 197L101 183L167 318Z" fill="#2c3a44" stroke="#2c3a44"></path><path d="M167 318L89 413L187 375Z" fill="#00101c" stroke="#00101c"></path><path d="M584 600L697 531L568 530Z" fill="#111e29" stroke="#111e29"></path><path d="M835 399L784 322L733 381Z" fill="#1e2c36" stroke="#1e2c36"></path><path d="M733 381L784 322L739 264Z" fill="#4a5861" stroke="#4a5861"></path><path d="M739 264L826 197L728 204Z" fill="#5a6870" stroke="#5a6870"></path><path d="M336 0L239 0L296 77Z" fill="#6a7880" stroke="#6a7880"></path><path d="M200 98L125 101L167 197Z" fill="#8c9aa0" stroke="#8c9aa0"></path><path d="M68 328L89 413L167 318Z" fill="#9dabb1" stroke="#9dabb1"></path><path d="M101 183L68 328L167 318Z" fill="#6a7880" stroke="#6a7880"></path><path d="M99 0L125 101L200 98Z" fill="#7a8990" stroke="#7a8990"></path><path d="M191 491L217 600L261 524Z" fill="#1e2c36" stroke="#1e2c36"></path><path d="M128 600L217 600L191 491Z" fill="#4a5861" stroke="#4a5861"></path><path d="M0 412L93 485L89 413Z" fill="#00101c" stroke="#00101c"></path><path d="M89 413L93 485L191 491Z" fill="#5a6870" stroke="#5a6870"></path><path d="M584 600L683 600L697 531Z" fill="#2c3a44" stroke="#2c3a44"></path><path d="M697 531L771 516L733 381Z" fill="#5a6870" stroke="#5a6870"></path><path d="M788 0L689 0L667 81Z" fill="#00101c" stroke="#00101c"></path><path d="M667 81L689 0L575 0Z" fill="#5a6870" stroke="#5a6870"></path><path d="M803 112L667 81L728 204Z" fill="#9dabb1" stroke="#9dabb1"></path><path d="M683 600L771 516L697 531Z" fill="#7a8990" stroke="#7a8990"></path><path d="M900 231L826 197L784 322Z" fill="#5a6870" stroke="#5a6870"></path><path d="M784 322L826 197L739 264Z" fill="#1e2c36" stroke="#1e2c36"></path><path d="M771 516L835 399L733 381Z" fill="#111e29" stroke="#111e29"></path><path d="M826 197L803 112L728 204Z" fill="#3b4952" stroke="#3b4952"></path><path d="M93 485L128 600L191 491Z" fill="#9dabb1" stroke="#9dabb1"></path><path d="M0 215L0 269L101 183Z" fill="#5a6870" stroke="#5a6870"></path><path d="M101 183L0 269L68 328Z" fill="#111e29" stroke="#111e29"></path><path d="M68 328L0 412L89 413Z" fill="#5a6870" stroke="#5a6870"></path><path d="M93 485L0 514L128 600Z" fill="#6a7880" stroke="#6a7880"></path><path d="M0 132L0 215L101 183Z" fill="#8c9aa0" stroke="#8c9aa0"></path><path d="M0 269L0 412L68 328Z" fill="#7a8990" stroke="#7a8990"></path><path d="M239 0L99 0L200 98Z" fill="#1e2c36" stroke="#1e2c36"></path><path d="M125 101L0 132L101 183Z" fill="#2c3a44" stroke="#2c3a44"></path><path d="M99 0L0 132L125 101Z" fill="#00101c" stroke="#00101c"></path><path d="M900 77L788 0L803 112Z" fill="#3b4952" stroke="#3b4952"></path><path d="M803 112L788 0L667 81Z" fill="#5a6870" stroke="#5a6870"></path><path d="M835 399L900 339L784 322Z" fill="#4a5861" stroke="#4a5861"></path><path d="M826 197L900 77L803 112Z" fill="#4a5861" stroke="#4a5861"></path><path d="M900 388L900 339L835 399Z" fill="#4a5861" stroke="#4a5861"></path><path d="M900 339L900 231L784 322Z" fill="#5a6870" stroke="#5a6870"></path><path d="M900 531L900 388L835 399Z" fill="#6a7880" stroke="#6a7880"></path><path d="M0 412L0 514L93 485Z" fill="#1e2c36" stroke="#1e2c36"></path><path d="M683 600L826 600L771 516Z" fill="#111e29" stroke="#111e29"></path><path d="M771 516L900 531L835 399Z" fill="#4a5861" stroke="#4a5861"></path><path d="M900 231L900 77L826 197Z" fill="#7a8990" stroke="#7a8990"></path><path d="M826 600L900 531L771 516Z" fill="#2c3a44" stroke="#2c3a44"></path><path d="M99 0L0 0L0 132Z" fill="#5a6870" stroke="#5a6870"></path><path d="M0 514L0 600L128 600Z" fill="#7a8990" stroke="#7a8990"></path><path d="M900 77L900 0L788 0Z" fill="#6a7880" stroke="#6a7880"></path><path d="M826 600L900 600L900 531Z" fill="#111e29" stroke="#111e29"></path></g></svg>